<?xml version="1.0" encoding="UTF-8"?>
<svg id="Layer_1" xmlns="http://www.w3.org/2000/svg" version="1.1" viewBox="0 0 4752.93 1066.56">
  <!-- Generator: Adobe Illustrator 30.5.1, SVG Export Plug-In . SVG Version: 2.1.4 Build 3)  -->
  <defs>
    <style>
      .st0 {
        fill: #fff;
      }

      .st1 {
        fill: #ffc570;
      }
    </style>
  </defs>
  <g>
    <polygon class="st1" points="0 117.76 0 876.52 68.58 876.52 68.58 283.51 414.46 629.29 462.99 580.76 414.46 532.23 0 117.76"/>
    <polygon class="st1" points="478.67 468.13 527.2 516.66 760.35 283.51 760.35 876.52 828.93 876.52 828.93 117.76 478.67 468.13"/>
    <rect class="st1" x="380.15" width="68.64" height="369.6"/>
    <rect class="st1" x="380.15" y="707.52" width="68.64" height="359.04"/>
  </g>
  <g>
    <polygon class="st0" points="1140.47 634.49 1140.78 634.49 1140.47 631.75 1140.47 634.49"/>
    <polygon class="st0" points="1140.47 634.49 1140.78 634.49 1140.47 631.64 1140.47 634.49"/>
    <polygon class="st0" points="2022.55 516.22 1840.2 516.22 1840.2 373.68 2010.97 373.68 2010.97 319.4 1840.2 319.4 1840.2 211.59 2022.55 211.59 2022.55 157.31 1783.02 157.31 1783.02 570.5 2022.55 570.5 2022.55 516.22"/>
    <path class="st0" d="M2413.75,402.09c8.84-2.4,16.8-5.31,24.19-8.83,21.22-10.12,38.32-24.8,50.82-43.65,12.53-18.91,18.89-41.37,18.89-66.75s-6.36-48.32-18.9-67.06c-12.51-18.66-29.6-33.24-50.81-43.35-21.08-10.05-45.33-15.15-72.05-15.15h-113.98v413.19h57.18v-162.09h43.27l112.75,162.09h70.67l-122.03-168.41ZM2365.89,357.03h-56.8v-148.33h56.8c16.69,0,31.62,2.99,44.35,8.89,12.56,5.83,22.53,14.3,29.6,25.19,7.07,10.87,10.65,24.36,10.65,40.09s-3.58,29.22-10.65,40.08c-7.08,10.9-17.05,19.37-29.6,25.19-12.71,5.9-27.63,8.89-44.35,8.89Z"/>
    <rect class="st0" x="2726.6" y="157.31" width="57.18" height="413.19"/>
    <path class="st0" d="M3324.51,255.7c-17.65-30.78-42.31-55.15-73.29-72.41-30.96-17.24-66.87-25.98-106.72-25.98h-125.55v413.19h125.55c39.87,0,75.78-8.73,106.72-25.97,30.98-17.26,55.64-41.62,73.29-72.41,17.64-30.76,26.58-67.17,26.58-108.21s-8.94-77.44-26.58-108.2ZM3283.19,426.15c-7.1,18.29-17.31,34.09-30.35,46.94-13.05,12.86-28.94,22.89-47.23,29.79-18.36,6.94-38.92,10.45-61.11,10.45h-68.38V214.48h68.38c22.17,0,42.74,3.52,61.11,10.46,18.3,6.91,34.2,16.94,47.23,29.79,13.04,12.85,23.25,28.64,30.35,46.94,7.12,18.38,10.73,39.32,10.73,62.24s-3.61,43.86-10.73,62.24Z"/>
    <rect class="st0" x="3563.09" y="157.31" width="57.18" height="413.19"/>
    <path class="st0" d="M3809.89,570.5h63.76l51.4-121.57h157.95l51.66,121.57h63.76l-194.26-439.32-194.26,439.32ZM3948.25,394.66l55.9-131.71,56.05,131.71h-111.95Z"/>
    <polygon class="st0" points="4694.82 157.31 4694.82 452.94 4388.01 131.08 4388.01 570.5 4445.19 570.5 4445.19 274.87 4751.99 596.74 4751.99 157.31 4694.82 157.31"/>
    <polygon class="st0" points="1140.47 128.68 1140.47 570.51 1197.64 570.51 1197.64 318.22 1355.68 524.75 1513.5 318.23 1513.52 564.1 1514.25 570.51 1570.66 570.51 1570.66 128.67 1355.68 427.64 1140.47 128.68"/>
    <g>
      <path class="st0" d="M1140.47,933.74v-199.8h136.66v23.72h-109.38v62.85h103.75v23.72h-103.75v65.51h109.38v24.01h-136.66Z"/>
      <path class="st0" d="M1519.32,937.89c-25.49,0-47.63-5.93-66.4-17.79v-26.09h1.48c18.98,12.45,41.4,18.68,67.3,18.68,12.84,0,23.81-2.71,32.9-8.15,9.09-5.43,13.64-13.49,13.64-24.16,0-14.42-11.37-24.7-34.09-30.83l-32.9-8.6c-15.03-3.95-26.98-10.38-35.87-19.27-8.89-8.89-13.34-20.26-13.34-34.09,0-18.77,6.97-33.1,20.9-42.98,13.93-9.88,31.47-14.82,52.62-14.82,24.51,0,45.26,5.73,62.26,17.19v26.09h-1.48c-17.6-12.25-38.64-18.38-63.15-18.38-11.86,0-22.04,2.77-30.53,8.3-8.5,5.54-12.75,13.34-12.75,23.42,0,14.63,10.86,24.9,32.61,30.83l33.21,8.6c15.21,3.96,27.42,10.43,36.61,19.42,9.19,8.99,13.79,20.41,13.79,34.24,0,18.78-7.47,33.2-22.38,43.28-14.92,10.08-33.05,15.12-54.4,15.12Z"/>
      <path class="st0" d="M1818.43,933.74v-176.09h-69.37v-23.72h166.31v23.72h-69.37v176.09h-27.57Z"/>
      <path class="st0" d="M2047.28,933.74v-1.48l76.78-198.32h33.79l76.78,198.32v1.48h-28.46l-18.68-49.21h-93.08l-18.68,49.21h-28.46ZM2103.32,861.41h75.6l-37.95-99.9-37.65,99.9Z"/>
      <path class="st0" d="M2435.93,933.74v-176.09h-69.37v-23.72h166.31v23.72h-69.37v176.09h-27.57Z"/>
      <path class="st0" d="M2703.92,933.74v-199.8h136.66v23.72h-109.38v62.85h103.75v23.72h-103.75v65.51h109.38v24.01h-136.66Z"/>
      <path class="st0" d="M3271.6,933.74l-53.66-198.32v-1.48h27.87l41.8,166.6,41.8-166.6h32.61l42.09,166.6,41.5-166.6h27.87v1.48l-53.66,198.32h-31.42l-42.69-167.79-42.98,167.79h-31.13Z"/>
      <path class="st0" d="M3618.14,933.74v-1.48l76.78-198.32h33.79l76.78,198.32v1.48h-28.46l-18.68-49.21h-93.08l-18.68,49.21h-28.46ZM3674.17,861.41h75.6l-37.95-99.9-37.65,99.9Z"/>
      <path class="st0" d="M4006.79,933.74v-176.09h-69.37v-23.72h166.31v23.72h-69.37v176.09h-27.57Z"/>
      <path class="st0" d="M4351.85,937.89c-29.45,0-52.91-9.88-70.4-29.65-17.49-19.76-26.23-44.86-26.23-75.3s8.74-54.99,26.23-74.26c17.49-19.27,40.96-28.9,70.4-28.9,25.5,0,45.66,5.93,60.47,17.79v26.09h-1.48c-6.72-6.12-15.27-10.82-25.65-14.08-10.37-3.26-20.7-4.89-30.97-4.89-22.53,0-39.98,7.11-52.32,21.34-12.35,14.23-18.53,33.2-18.53,56.92s6.18,43.18,18.53,57.81c12.35,14.63,29.79,21.94,52.32,21.94,10.27,0,20.6-1.58,30.97-4.74,10.38-3.16,18.92-7.8,25.65-13.93h1.48v26.09c-15.02,11.86-35.18,17.79-60.47,17.79Z"/>
      <path class="st0" d="M4592.86,933.74v-199.8h27.27v86.56h105.53v-86.56h27.27v199.8h-27.27v-89.53h-105.53v89.53h-27.27Z"/>
    </g>
  </g>
</svg>